# xmcd CD database file
#
# Track frame offsets:
#	150
#	11100
#	22005
#	31224
#	41419
#	52338
#	62303
#	71439
#	83145
#	92532
#	103277
#	112110
#	121277
#	131533
#	141206
#	150526
#	160491
#	170833
#	180909
#	190372
#
# Disc length: 2678 seconds
#
# Revision: 0
# Processed by: cddbd v1.4PL0 Copyright (c) Steve Scherf et al.
# Submitted via: CDex 1.50Beta7
#
DISCID=140a7414
DTITLE=The Everly Brothers - 20 Original Classics
DYEAR=1999
DGENRE=Country
TTITLE0=Bye Bye Love
TTITLE1=('Til) I Kissed You
TTITLE2=When Will I Be Loved
TTITLE3=Bird Dog
TTITLE4=Take A Message To Mary
TTITLE5=Claudette
TTITLE6=Wake Up Little Susie
TTITLE7=Let It Be Me
TTITLE8=Love Of My Life
TTITLE9=Devoted To You
TTITLE10=Problems
TTITLE11=Like Strangers
TTITLE12=This Little Girl Of Mine
TTITLE13=Poor Jenny
TTITLE14=Should We Tell Him
TTITLE15=I Wonder If I Care As Much
TTITLE16=Be Bop A Lula
TTITLE17=Rip It Up
TTITLE18=Maybe Tomorrow
TTITLE19=All I Have To Do Is Dream
EXTD=YEAR: 1999
EXTT0=
EXTT1=
EXTT2=
EXTT3=
EXTT4=
EXTT5=
EXTT6=
EXTT7=
EXTT8=
EXTT9=
EXTT10=
EXTT11=
EXTT12=
EXTT13=
EXTT14=
EXTT15=
EXTT16=
EXTT17=
EXTT18=
EXTT19=
PLAYORDER=
